<?xml version="1.0" encoding="UTF-8"?>
<svg version="1.1" xmlns="http://www.w3.org/2000/svg" width="192" height="192">
  <path
    d="M0 0 C1.6640625 0.8046875 1.6640625 0.8046875 3.9140625 2.3046875 C3.9140625 2.9646875 3.9140625 3.6246875 3.9140625 4.3046875 C4.72617188 4.5315625 5.53828125 4.7584375 6.375 4.9921875 C10.76856139 6.62158775 14.54533812 8.87794525 18.5390625 11.3046875 C20.03057457 12.20164493 21.52274076 13.09751574 23.015625 13.9921875 C23.66869629 14.38792969 24.32176758 14.78367187 24.99462891 15.19140625 C26.93172684 16.31493291 28.90127817 17.32431548 30.9140625 18.3046875 C30.9140625 18.9646875 30.9140625 19.6246875 30.9140625 20.3046875 C31.61917969 20.3975 32.32429688 20.4903125 33.05078125 20.5859375 C36.4679787 21.44373331 38.76885626 22.89110092 41.7265625 24.8046875 C46.75889172 28.01200159 51.87384612 30.99015191 57.1015625 33.8671875 C73.83615804 43.14887859 73.83615804 43.14887859 75.9140625 47.3046875 C76.23857849 51.56899198 76.23857801 55.84206947 76.2890625 60.1171875 C76.34513672 61.90092773 76.34513672 61.90092773 76.40234375 63.72070312 C76.49076542 72.46953623 76.49076542 72.46953623 73.8046875 76.359375 C72.85078125 77.00132813 71.896875 77.64328125 70.9140625 78.3046875 C69.31691406 79.41263672 69.31691406 79.41263672 67.6875 80.54296875 C66.56601563 81.22746094 65.44453125 81.91195312 64.2890625 82.6171875 C63.71671875 82.97619141 63.144375 83.33519531 62.5546875 83.70507812 C59.78007582 85.39888177 58.22511088 86.3046875 54.9140625 86.3046875 C54.9140625 86.9646875 54.9140625 87.6246875 54.9140625 88.3046875 C54.23601562 88.66820313 53.55796875 89.03171875 52.859375 89.40625 C47.44260076 92.33220839 42.10616432 95.34462569 36.84375 98.5390625 C33.05148169 100.8245362 29.23287747 103.06393983 25.4140625 105.3046875 C20.7585599 108.03875102 16.10553957 110.7758387 11.4765625 113.5546875 C10.71472656 114.00585938 9.95289062 114.45703125 9.16796875 114.921875 C7.56537539 115.90509519 5.99209939 116.93680755 4.44140625 118 C-0.42120736 121.23172156 -4.4384536 123.39185632 -10.3828125 123.02734375 C-16.24437553 121.46030739 -21.11338532 117.65973859 -26.0859375 114.3046875 C-27.48995566 113.49079957 -28.90545843 112.69611439 -30.3359375 111.9296875 C-35.59309036 109.06659124 -40.73147363 106.00375367 -45.88378906 102.95751953 C-49.09767584 101.05840462 -52.3155124 99.17442309 -55.5625 97.33203125 C-59.71731152 94.96824999 -63.77020357 92.44250686 -67.8359375 89.9296875 C-73.76255194 86.27597148 -79.70586806 82.76856393 -85.921875 79.62109375 C-88.48066128 78.06457574 -90.17250998 76.62374 -92.0859375 74.3046875 C-92.60351562 71.45141602 -92.60351562 71.45141602 -92.6171875 68.18359375 C-92.62234375 67.00087891 -92.6275 65.81816406 -92.6328125 64.59960938 C-92.60960938 62.75206055 -92.60960938 62.75206055 -92.5859375 60.8671875 C-92.60140625 59.63935547 -92.616875 58.41152344 -92.6328125 57.14648438 C-92.62765625 55.96248047 -92.6225 54.77847656 -92.6171875 53.55859375 C-92.61267578 52.47908447 -92.60816406 51.3995752 -92.60351562 50.28735352 C-91.96586048 46.61271534 -90.68859689 44.93319522 -88.0859375 42.3046875 C-85.3359375 41.4921875 -85.3359375 41.4921875 -83.0859375 41.3046875 C-83.0859375 40.6446875 -83.0859375 39.9846875 -83.0859375 39.3046875 C-80.77734375 37.75390625 -80.77734375 37.75390625 -77.6484375 35.9921875 C-76.54628906 35.36699219 -75.44414063 34.74179687 -74.30859375 34.09765625 C-73.24511719 33.50597656 -72.18164062 32.91429687 -71.0859375 32.3046875 C-70.30089844 31.86769531 -69.51585938 31.43070313 -68.70703125 30.98046875 C-67.29108022 30.19556772 -65.87309671 29.4143223 -64.453125 28.63671875 C-60.47914667 26.40053623 -56.5871544 24.02312513 -52.6875 21.66015625 C-50.0859375 20.3046875 -50.0859375 20.3046875 -47.0859375 20.3046875 C-47.0859375 19.6446875 -47.0859375 18.9846875 -47.0859375 18.3046875 C-44.77734375 16.75390625 -44.77734375 16.75390625 -41.6484375 14.9921875 C-40.54628906 14.36699219 -39.44414063 13.74179688 -38.30859375 13.09765625 C-37.24511719 12.50597656 -36.18164062 11.91429687 -35.0859375 11.3046875 C-34.30089844 10.86769531 -33.51585937 10.43070313 -32.70703125 9.98046875 C-31.28209464 9.19058676 -29.8522839 8.40943989 -28.41796875 7.63671875 C-26.66794907 6.63712627 -24.96313259 5.55771687 -23.28515625 4.44140625 C-15.75084139 -0.43488832 -8.88252556 -2.96084185 0 0 Z "
    fill="#31AAFE" transform="translate(104.0859375,0.6953125)"/>
  <path
    d="M0 0 C5.1594673 1.89817439 9.71290424 4.49078117 14.375 7.375 C15.70505205 8.18600735 17.03577747 8.99591144 18.3671875 9.8046875 C19.31416504 10.38041504 19.31416504 10.38041504 20.28027344 10.96777344 C22.32692407 12.1962287 24.40301012 13.35981159 26.5 14.5 C31.04977146 16.98709522 35.47983019 19.66718888 39.91870117 22.3449707 C45.58216565 25.75878709 51.27772402 29.11593837 56.98291016 32.45947266 C61.72337757 35.24003419 66.43566307 38.06235028 71.1171875 40.94140625 C73.11788542 42.14445781 73.11788542 42.14445781 76 43 C76 43.66 76 44.32 76 45 C82.68220714 45.61618713 86.87466643 45.17770373 92.30859375 41.09375 C94 40 94 40 97 40 C97 39.34 97 38.68 97 38 C99.51953125 36.2734375 99.51953125 36.2734375 102.8125 34.375 C103.89144531 33.74335938 104.97039062 33.11171875 106.08203125 32.4609375 C109 31 109 31 112 31 C112 30.34 112 29.68 112 29 C113.28970703 28.27296875 113.28970703 28.27296875 114.60546875 27.53125 C115.7997886 26.85471264 116.99377346 26.1775837 118.1875 25.5 C118.81374268 25.14486328 119.43998535 24.78972656 120.08520508 24.42382812 C125.61430884 21.26632213 130.99609006 17.90509638 136.35546875 14.46875 C139 13 139 13 142 13 C142 12.34 142 11.68 142 11 C145.83948049 8.40195153 149.94224567 6.23773217 154 4 C154.804375 3.54367188 155.60875 3.08734375 156.4375 2.6171875 C161.45384615 -0.1 161.45384615 -0.1 164.21875 0.40625 C164.8065625 0.6021875 165.394375 0.798125 166 1 C166.09899561 7.03225939 166.17152907 13.06404427 166.21972656 19.09692383 C166.23982199 21.14843993 166.26710324 23.19989889 166.30175781 25.2512207 C166.35036669 28.20278025 166.37298952 31.15358148 166.390625 34.10546875 C166.41127014 35.02023483 166.43191528 35.93500092 166.45318604 36.87748718 C166.45464547 41.03426008 166.38790118 43.3624201 164.18847656 46.97753906 C162.35264091 48.67411008 160.76180596 50.03762686 158.59375 51.25390625 C157.94245117 51.62725098 157.29115234 52.0005957 156.62011719 52.38525391 C155.92047852 52.77374512 155.22083984 53.16223633 154.5 53.5625 C152.97333919 54.4351156 151.44732465 55.30886261 149.921875 56.18359375 C149.12072266 56.63976074 148.31957031 57.09592773 147.49414062 57.56591797 C143.21176184 60.02820194 138.98243113 62.57813225 134.75 65.125 C133.48845093 65.88067261 133.48845093 65.88067261 132.20141602 66.65161133 C128.42959808 68.91499743 124.6705977 71.19352253 120.94921875 73.5390625 C120.34819336 73.91659668 119.74716797 74.29413086 119.12792969 74.68310547 C117.5592278 75.67317295 115.99616257 76.67215607 114.43359375 77.671875 C112 79 112 79 109 79 C109 79.66 109 80.32 109 81 C106.48046875 82.7265625 106.48046875 82.7265625 103.1875 84.625 C102.10855469 85.25664062 101.02960938 85.88828125 99.91796875 86.5390625 C97 88 97 88 94 88 C94 88.66 94 89.32 94 90 C88.3240161 93.94851054 83.89077885 95.04151277 77 94 C73.49513718 92.5824995 70.45833027 90.64483225 67.3125 88.5625 C65.5586889 87.4555784 63.8047818 86.34880888 62.05078125 85.2421875 C60.7680835 84.41605957 60.7680835 84.41605957 59.45947266 83.57324219 C56.01621591 81.3707063 52.51353477 79.27531941 49 77.1875 C47.79681358 76.46494602 46.59368684 75.74229264 45.390625 75.01953125 C42.19063448 73.11354611 38.97437578 71.23935061 35.75 69.375 C31.87601117 67.12860648 28.07822373 64.79843386 24.3125 62.375 C18.86709323 58.87493941 13.28725553 55.71167605 7.546875 52.72265625 C6.74765625 52.29855469 5.9484375 51.87445313 5.125 51.4375 C4.40570312 51.06496094 3.68640625 50.69242188 2.9453125 50.30859375 C0.65253984 48.76626676 -0.51664202 47.3304621 -2 45 C-2.36076355 42.84857178 -2.36076355 42.84857178 -2.34057617 40.50683594 C-2.34034958 39.62622498 -2.34012299 38.74561401 -2.33988953 37.83831787 C-2.32440567 36.89651672 -2.30892181 35.95471558 -2.29296875 34.984375 C-2.28872391 34.01340881 -2.28447906 33.04244263 -2.28010559 32.04205322 C-2.26332853 28.94441869 -2.22567772 25.84743751 -2.1875 22.75 C-2.17245192 20.6484469 -2.15876373 18.5468836 -2.14648438 16.4453125 C-2.11342811 11.29662371 -2.06165208 6.14842259 -2 1 C-1.34 0.67 -0.68 0.34 0 0 Z "
    fill="#9761FC" transform="translate(14,98)"/>
  <path
    d="M0 0 C3.875 1.75 3.875 1.75 5 4 C5.32451599 8.26430448 5.32451551 12.53738197 5.375 16.8125 C5.43107422 18.59624023 5.43107422 18.59624023 5.48828125 20.41601562 C5.57670292 29.16484873 5.57670292 29.16484873 2.890625 33.0546875 C1.93671875 33.69664063 0.9828125 34.33859375 0 35 C-1.59714844 36.10794922 -1.59714844 36.10794922 -3.2265625 37.23828125 C-4.34804687 37.92277344 -5.46953125 38.60726562 -6.625 39.3125 C-7.19734375 39.67150391 -7.7696875 40.03050781 -8.359375 40.40039062 C-11.13398668 42.09419427 -12.68895162 43 -16 43 C-16 43.66 -16 44.32 -16 45 C-16.67804688 45.36351562 -17.35609375 45.72703125 -18.0546875 46.1015625 C-23.47146174 49.02752089 -28.80789818 52.03993819 -34.0703125 55.234375 C-37.86258081 57.5198487 -41.68118503 59.75925233 -45.5 62 C-50.1555026 64.73406352 -54.80852293 67.4711512 -59.4375 70.25 C-60.19933594 70.70117188 -60.96117188 71.15234375 -61.74609375 71.6171875 C-63.34868711 72.60040769 -64.92196311 73.63212005 -66.47265625 74.6953125 C-71.33526986 77.92703406 -75.3525161 80.08716882 -81.296875 79.72265625 C-87.15843803 78.15561989 -92.02744782 74.35505109 -97 71 C-98.40401816 70.18611207 -99.81952093 69.39142689 -101.25 68.625 C-106.50715286 65.76190374 -111.64553613 62.69906617 -116.79785156 59.65283203 C-120.01173834 57.75371712 -123.2295749 55.86973559 -126.4765625 54.02734375 C-130.63137402 51.66356249 -134.68426607 49.13781936 -138.75 46.625 C-144.67661444 42.97128398 -150.61993056 39.46387643 -156.8359375 36.31640625 C-159.43020273 34.73830628 -161.15791203 33.4367123 -163 31 C-163.42578125 27.64453125 -163.42578125 27.64453125 -163.3125 23.8125 C-163.29703125 23.14919678 -163.2815625 22.48589355 -163.265625 21.80249023 C-163.12020609 16.824922 -162.69169638 11.92833669 -162 7 C-157.37738438 7 -155.84984779 7.98827715 -151.93359375 10.33203125 C-151.34661209 10.67978607 -150.75963043 11.02754089 -150.15486145 11.38583374 C-148.24419186 12.52007427 -146.34093526 13.66616836 -144.4375 14.8125 C-143.12326028 15.59571297 -141.80847846 16.37801699 -140.49316406 17.15942383 C-138.5188832 18.33263267 -136.54506652 19.50655989 -134.57327271 20.6839447 C-128.45071616 24.3392796 -122.27534184 27.89976782 -116.07592773 31.4230957 C-111.60910877 33.98652789 -107.33095213 36.75687436 -103.06201172 39.63696289 C-98.87926956 42.40185153 -94.43155609 44.66622194 -90 47 C-89.25234375 47.41765625 -88.5046875 47.8353125 -87.734375 48.265625 C-86.72117188 48.81476563 -86.72117188 48.81476563 -85.6875 49.375 C-85.11386719 49.69210938 -84.54023437 50.00921875 -83.94921875 50.3359375 C-80.25395685 51.59484436 -77.42970246 51.6329105 -73.80834961 50.02978516 C-71.20186519 48.62934089 -68.66220108 47.14736666 -66.125 45.625 C-65.20041992 45.08351318 -64.27583984 44.54202637 -63.32324219 43.98413086 C-56.90363541 40.20245322 -50.56363649 36.29468248 -44.26953125 32.30810547 C-40.26951985 29.77497196 -36.22990994 27.3883289 -32.06640625 25.13671875 C-27.97108516 22.88390507 -23.99694251 20.42164059 -20 18 C-12.70612151 13.59791603 -5.36708103 9.27847661 2 5 C1.01 2.525 1.01 2.525 0 0 Z "
    fill="#4F78FD" transform="translate(175,44)"/>
</svg>
